<!-- Original report-rs example artwork. SPDX-License-Identifier: MIT -->
<svg xmlns="http://www.w3.org/2000/svg" width="770" height="400" viewBox="0 0 770 400">
  <title>APPROVED stamp</title>
  <desc>Original geometric lettering and rounded double border, drawn for report-rs.</desc>
  <g transform="rotate(-10 385 200)" fill="none" stroke="#bb252b" stroke-linejoin="round" stroke-linecap="round">
    <rect x="48" y="100" width="674" height="200" rx="20" stroke-width="9"/>
    <rect x="63" y="115" width="644" height="170" rx="9" stroke-width="2"/>
    <!-- Hand-constructed letter paths: no external artwork or font dependency. -->
    <g transform="translate(95 151)" stroke-width="12">
      <path d="M0 98 25 0 50 98 M10 60H40"/>
      <path transform="translate(72)" d="M0 98V0H28Q50 0 50 25T28 50H0"/>
      <path transform="translate(144)" d="M0 98V0H28Q50 0 50 25T28 50H0"/>
      <path transform="translate(216)" d="M0 98V0H28Q50 0 50 25T28 50H0 M25 50 53 98"/>
      <rect x="288" y="0" width="50" height="98" rx="25"/>
      <path transform="translate(360)" d="M0 0 25 98 50 0"/>
      <path transform="translate(432)" d="M50 0H0V98H50 M0 49H40"/>
      <path transform="translate(504)" d="M0 0V98H20Q55 98 55 49T20 0Z"/>
    </g>
  </g>
</svg>
